<?xml version="1.0" standalone="no"?><!DOCTYPE svg PUBLIC "-//W3C//DTD SVG 1.1//EN" "http://www.w3.org/Graphics/SVG/1.1/DTD/svg11.dtd"><svg t="1580649426866" class="icon" viewBox="0 0 1024 1024" version="1.1" xmlns="http://www.w3.org/2000/svg" p-id="5911" xmlns:xlink="http://www.w3.org/1999/xlink" width="128" height="128"><defs><style type="text/css"></style></defs><path d="M400.563832 0.00396c-8.999187-0.199982-16.398519 7.19935-16.398519 16.198537V47.999626c0 8.799205 6.999368 15.598592 15.798573 15.798573C705.536295 71.397513 951.914049 318.375213 959.913327 623.947622c0.199982 8.799205 7.19935 15.798573 15.798573 15.798573h31.997111c8.999187 0 16.398519-7.399332 16.198537-16.398519C1015.308325 283.578355 740.333153 8.603183 400.563832 0.00396z m0 191.982665c-8.999187-0.399964-16.398519 7.19935-16.398519 16.198537v31.997111c0 8.599224 6.999368 15.598592 15.598591 15.998556 199.581979 7.999278 360.967407 168.384796 368.366739 367.966775 0.399964 8.599224 7.19935 15.598592 15.998556 15.598591h31.597147c8.999187 0 16.398519-7.399332 16.198537-16.398519-8.599224-233.978873-197.382178-422.761828-431.361051-431.361051zM241.978151 511.957734h-17.998375c-17.598411 0-31.997111 14.3987-31.997111 31.997111v31.997111c0 17.598411 14.3987 31.997111 31.997111 31.99711h21.798032c93.991513 0 175.98411 76.793066 169.78467 170.584598-5.199531 79.792795-69.193752 143.587035-148.786566 148.986547C172.784399 933.919634 95.991333 851.927037 95.991333 757.735542V287.977958c0-17.598411-14.3987-31.997111-31.997111-31.997111H31.997111c-17.598411 0-31.997111 14.3987-31.997111 31.997111v465.957927c0 148.386602 120.189148 276.974991 268.575749 269.775641 131.188155-6.399422 236.778621-111.989888 243.178043-243.178043C518.75316 632.146882 390.364753 511.957734 241.978151 511.957734z" p-id="5912"></path></svg>